<svg id="Layer_1" data-name="Layer 1" xmlns="http://www.w3.org/2000/svg" viewBox="0 0 743.73 382.63"><defs><style>.cls-1{fill:#001a70;}</style></defs><path class="cls-1" d="M345.39,174,333,148.14h-.1L331.61,170c-.14,2.48,1.7,3,3.88,3.11V174H325.4v-.92c3.54,0,4-.78,4.22-5.19L330.79,149c.19-3.2.09-4.07-2.91-4.27v-.87h7.32l11.7,24.45,11.64-24.45h7.14v.87c-2.38.2-3.3.25-3.21,1.9l1.56,22c.29,4.46.68,4.46,4.22,4.46V174H355.78v-.92c2.28,0,4.51-.63,4.32-3.2l-1.41-21.74h-.1L346.51,174Z"/><path class="cls-1" d="M383.24,174H371.45v-.92c3-.15,3.64-.92,3.64-4.17V148.24c0-2.62-.93-3.35-3.64-3.5v-.92h11.79v.92c-3.06,0-4.13.68-4.13,3.93v20.58c0,2.86.78,3.83,4.13,3.83Z"/><path class="cls-1" d="M418.37,174.34,393.23,148v20.82c0,3.49.78,4.22,4.9,4.22V174H386.88v-.92h.19c3,0,4-1,4-3.25V146a7.12,7.12,0,0,0-4.08-1.22v-.92h7.62l22.86,23.83V148.33c0-3-.88-3.49-4.76-3.59v-.92H424v.92c-3.63,0-4.41.63-4.41,2.53v27.07Z"/><path class="cls-1" d="M438.84,174H427.05v-.92c3-.15,3.64-.92,3.64-4.17V148.24c0-2.62-.92-3.35-3.64-3.5v-.92h11.79v.92c-3.06,0-4.12.68-4.12,3.93v20.58c0,2.86.77,3.83,4.12,3.83Z"/><path class="cls-1" d="M444.08,166.63a8.43,8.43,0,0,0,8.2,6.84c3.25,0,6.7-1.89,6.7-5.73,0-7-15.58-9.12-15.58-17.61,0-4,3.69-7,8.64-7,4.08,0,4.9,1.22,6.6,1.22a.92.92,0,0,0,.87-.49h.78l.82,6.16h-.82a8.58,8.58,0,0,0-7.81-5.72c-3.21,0-5.44,1.84-5.44,4.56,0,6.89,15.58,8.73,15.58,17.66,0,4.76-4.22,8.3-9.9,8.3-2.67,0-6.07-1.31-6.75-1.31a1.18,1.18,0,0,0-1,.53h-.82l-1-7.37Z"/><path class="cls-1" d="M483.24,169.54c0,2.62.87,3.54,3.83,3.54h1.8V174H473.58v-.92h1.8c3,0,3.83-.92,3.83-3.54v-24h-8.44c-1.94,0-2.82,1.11-3.54,5.38h-.88l.78-7.86h.92a.74.74,0,0,0,.53.59,3.39,3.39,0,0,0,1,.14h23.34c.68,0,1.41-.14,1.51-.73h.92l.78,7.86h-.88c-.72-4.27-1.6-5.38-3.54-5.38h-8.44Z"/><path class="cls-1" d="M520.16,163.08h-.92c-.39-3.44-1.31-3.83-3.3-3.83h-8.2v10.34c0,2.23.82,2.67,2.62,2.67h7.47c3.4,0,4.42-1.32,5.63-5.49h.87l-.77,7.23H497.79v-.92h1.36c3.88,0,4.56-1.07,4.56-4V148.62c0-2.71-.63-3.88-3.88-3.88h-1.07v-.92h23.29l.39,6.75h-.87c-.63-4.13-1.85-5-3.59-5H507.74V157.5h8.68c1.75,0,2.58-.82,2.82-3.64h.92Z"/><path class="cls-1" d="M536.12,169.44c0,2.91,1.17,3.64,3.89,3.64h1.11V174H527.39v-.92h.82c2.87,0,3.89-.78,3.89-4V148.62c0-3-.83-3.88-3.64-3.88h-1.07v-.92c1.16,0,4.12-.19,6.11-.29s3-.15,6.12-.15c9,0,13,3.69,13,8.64,0,3.64-2.47,6.7-6.45,7.86a59.44,59.44,0,0,1,5.53,5.05l3.83,3.83c2.87,2.86,5.83,4.66,9.56,4.9v.88c-8.49.38-10.67-1.46-15-5.78l-3.2-3.2a36.27,36.27,0,0,0-5-4.32c-1.21,0-2,.1-3.3.1-1.07,0-1.7-.05-2.48-.1Zm0-9.12a21.94,21.94,0,0,0,3,.1c5.39,0,8.93-2.29,8.93-8.11,0-4.51-2-8-9.51-8a21.57,21.57,0,0,0-2.43.09Z"/><path class="cls-1" d="M579.35,174H567.56v-.92c3-.15,3.64-.92,3.64-4.17V148.24c0-2.62-.92-3.35-3.64-3.5v-.92h11.79v.92c-3.05,0-4.12.68-4.12,3.93v20.58c0,2.86.78,3.83,4.12,3.83Z"/><path class="cls-1" d="M601.63,174.78c-9.51,0-17.52-6.12-17.52-15.19,0-9.66,7.42-16.5,17.76-16.5,9.17,0,17,6.26,17,15C618.9,167.89,611,174.78,601.63,174.78Zm-1-30.47c-8.54,0-11.94,7.95-11.94,13.78,0,9.07,6.16,15.48,14,15.48s11.69-7,11.69-13.88C614.34,150.66,608.61,144.31,600.61,144.31Z"/><path class="cls-1" d="M330.16,206.9c0-3.15-.83-3.93-3.69-3.93h-1v-.92c1.79-.1,4.17-.2,6.84-.29s5.63-.15,8.15-.15c12.81,0,18.49,6.5,18.49,14.51,0,7.33-5.68,16.11-18,16.11H325.5v-.92h.82c2.62,0,3.84-.73,3.84-3.55Zm4,21.74c0,2,.15,2.67,4,2.67,6.51,0,9.22-.93,12.23-3.93a15,15,0,0,0,4-10.48,14.63,14.63,0,0,0-3.88-10.44c-2.24-2.23-5.68-3.93-12.47-3.93a38.54,38.54,0,0,0-3.89.2Z"/><path class="cls-1" d="M384.16,221.31h-.92c-.39-3.44-1.31-3.83-3.3-3.83h-8.2v10.33c0,2.24.82,2.67,2.62,2.67h7.47c3.4,0,4.42-1.31,5.63-5.48h.87l-.77,7.23H361.79v-.92h1.36c3.88,0,4.56-1.07,4.56-4V206.85c0-2.72-.63-3.88-3.88-3.88h-1.07v-.92h23.29l.39,6.74h-.87c-.63-4.12-1.85-5-3.59-5H371.74v11.94h8.68c1.75,0,2.58-.82,2.82-3.64h.92Z"/><path class="cls-1" d="M426.47,221.31h-.92c-.39-3.44-1.31-3.83-3.3-3.83h-8.2v10.33c0,2.24.82,2.67,2.62,2.67h7.47c3.4,0,4.42-1.31,5.63-5.48h.87l-.77,7.23H404.1v-.92h1.36c3.88,0,4.56-1.07,4.56-4V206.85c0-2.72-.63-3.88-3.88-3.88h-1.07v-.92h23.29l.39,6.74h-.87c-.63-4.12-1.85-5-3.59-5H414.05v11.94h8.68c1.75,0,2.58-.82,2.82-3.64h.92Z"/><path class="cls-1" d="M438.16,206.9c0-3.15-.82-3.93-3.69-3.93h-1v-.92c1.8-.1,4.18-.2,6.85-.29s5.62-.15,8.15-.15c12.81,0,18.48,6.5,18.48,14.51,0,7.33-5.67,16.11-18,16.11H433.5v-.92h.83c2.62,0,3.83-.73,3.83-3.55Zm4,21.74c0,2,.15,2.67,4,2.67,6.5,0,9.22-.93,12.23-3.93a15,15,0,0,0,4-10.48,14.63,14.63,0,0,0-3.88-10.44c-2.23-2.23-5.68-3.93-12.47-3.93a38.07,38.07,0,0,0-3.88.2Z"/><path class="cls-1" d="M507.5,202.05V203c-3.25.05-4.42,1.36-4.42,4.46v13.1c0,6-3.83,12.48-14.36,12.48-9.27,0-14-5.29-14-12.23V206.61c0-3.11-.88-3.59-4.17-3.64v-.92H483V203h-.44c-2.67,0-3.83.73-3.83,3.54V220c0,6.55,3.83,10.48,11.06,10.48,5.48,0,11.06-2.28,11.06-10.53v-11.3c0-4.66-.73-5.49-4.75-5.68v-.92Z"/><path class="cls-1" d="M539.38,210a11.32,11.32,0,0,0-11.07-7.48c-8.1,0-13.15,5.87-13.15,14,0,8.78,6.31,15.23,13.69,15.23,3.83,0,8.54-1.31,11.84-7.18h.92a32.74,32.74,0,0,1-3.11,7.08c-3.1-.43-5.24,1.32-11,1.32-9.85,0-16.94-6.51-16.94-15.48,0-9.42,7.28-16.21,17.42-16.21,6.12,0,8.74,1.94,10.24,1.94.53,0,.78-.15.87-.29h.73l.44,7Z"/><path class="cls-1" d="M553.5,218.84l-2.82,7.61a13.78,13.78,0,0,0-1,3.06c0,1.31,1.26,1.8,3.93,1.8h.78v.92H543.21v-.92c3.15-.05,3.69-.59,5.24-4.81l8.83-24.11-.44-1.07h4.22l10.15,26.93c1,2.57,2,3.06,4.41,3.06v.92H562.28v-.92h1.26c2.77,0,3.78-.29,3.78-1.65a5.43,5.43,0,0,0-.53-2l-3.25-8.83Zm4.94-13.44-4.12,11.3h8.39Z"/><path class="cls-1" d="M605.22,210a11.32,11.32,0,0,0-11.06-7.48c-8.11,0-13.15,5.87-13.15,14,0,8.78,6.3,15.23,13.68,15.23,3.83,0,8.54-1.31,11.84-7.18h.92a33.2,33.2,0,0,1-3.1,7.08c-3.11-.43-5.25,1.32-11,1.32-9.85,0-16.94-6.51-16.94-15.48,0-9.42,7.28-16.21,17.42-16.21,6.12,0,8.74,1.94,10.24,1.94.54,0,.78-.15.88-.29h.72l.44,7Z"/><path class="cls-1" d="M623.27,232.23H611.48v-.92c3-.15,3.63-.93,3.63-4.18V206.46c0-2.62-.92-3.35-3.63-3.49v-.92h11.79V203c-3.06,0-4.13.68-4.13,3.93v20.57c0,2.87.78,3.84,4.13,3.84Z"/><path class="cls-1" d="M645.54,233C636,233,628,226.89,628,217.82c0-9.66,7.43-16.5,17.76-16.5,9.17,0,17,6.26,17,15C662.81,226.11,655,233,645.54,233Zm-1-30.48c-8.54,0-11.94,8-11.94,13.78,0,9.08,6.16,15.48,14,15.48s11.69-7,11.69-13.88C658.25,208.89,652.53,202.53,644.52,202.53Zm-3.79-4.32,4.47-6.16a4.48,4.48,0,0,1,3.1-2.13,1.4,1.4,0,0,1,1.51,1.4c0,.93-1,1.9-3.3,3.45l-5.14,3.44Z"/><path class="cls-1" d="M698.33,232.57l-25.14-26.3v20.82c0,3.49.78,4.22,4.9,4.22v.92H666.84v-.92H667c3,0,4-1,4-3.25V204.18a7.19,7.19,0,0,0-4.08-1.21v-.92h7.62l22.86,23.82V206.56c0-3-.88-3.49-4.76-3.59v-.92H704V203c-3.64,0-4.42.63-4.42,2.52v27.08Z"/><path class="cls-1" d="M58.27,282.22a22.13,22.13,0,0,1-8.82,2.07A10.14,10.14,0,0,1,38.9,273.94a11,11,0,0,1,11.47-11.11c3.52,0,5.86,1.12,6.55,1.12a1.16,1.16,0,0,0,.75-.23h.46V269h-.65c-.89-4.11-3.68-5.39-6.74-5.39-5.79,0-8.75,4.8-8.75,10.09,0,6.74,4.73,9.73,8.52,9.73a11.1,11.1,0,0,0,5-1.25v-4.14c0-1.87-.66-2.5-2.63-2.5H51.69V275h8.88v.59c-1.64.1-2.3.66-2.3,2.07Z"/><path class="cls-1" d="M72.34,284.29c-6.44,0-11.87-4.14-11.87-10.29,0-6.53,5-11.17,12-11.17,6.21,0,11.54,4.24,11.54,10.16,0,6.64-5.33,11.3-11.71,11.3m-.69-20.64c-5.78,0-8.09,5.39-8.09,9.34,0,6.14,4.18,10.48,9.47,10.48s7.93-4.73,7.93-9.4c0-6.11-3.88-10.42-9.31-10.42"/><path class="cls-1" d="M87.14,266.81c0-1.87-.23-2.86-2.53-2.86H83.46v-.63c.92,0,3.19-.16,4.15-.19,1.8-.07,4.3-.1,4.93-.1,2.89,0,5.42.42,6.61,1.28a4.16,4.16,0,0,1,2,3.65,4.32,4.32,0,0,1-3.75,4V272c3.1.92,4.9,2.93,4.9,5.49s-1.8,6.25-7.1,6.25h-12v-.63h.75c2.7,0,3.22-.62,3.22-2.69Zm2.73,5.06h3.59c3.16,0,4.73-1.25,4.73-3.81,0-2.3-1.38-4.41-5.42-4.41-.73,0-2.07.07-2.9.1Zm0,7.62c0,2.5,1,3.39,3.75,3.39,4.34,0,5.59-2.7,5.59-5.26s-1.94-5.12-5.78-5.12H89.87Z"/><path class="cls-1" d="M110.89,283.77h-8v-.63c2-.1,2.46-.62,2.46-2.82v-14c0-1.77-.62-2.26-2.46-2.36v-.63h8V264c-2.07,0-2.8.46-2.8,2.66v13.94c0,1.94.53,2.59,2.8,2.59Z"/><path class="cls-1" d="M126.89,276.37h-.62c-.26-2.33-.89-2.59-2.24-2.59h-5.55v7c0,1.51.55,1.8,1.77,1.8h5.06c2.31,0,3-.88,3.82-3.71h.59l-.53,4.9H111.73v-.63h.92c2.64,0,3.1-.72,3.1-2.69V266.58c0-1.84-.43-2.63-2.63-2.63h-.73v-.63h15.79l.26,4.57h-.59c-.43-2.79-1.25-3.38-2.44-3.38h-6.93v8.08h5.88c1.18,0,1.74-.56,1.91-2.46h.62Z"/><path class="cls-1" d="M135.08,280.68c0,2,.79,2.46,2.63,2.46h.76v.63h-9.31v-.63h.56c1.94,0,2.63-.52,2.63-2.73V266.58c0-2-.55-2.63-2.46-2.63h-.73v-.62c.79,0,2.8-.14,4.15-.2s2-.1,4.14-.1c6.08,0,8.81,2.5,8.81,5.85a5.6,5.6,0,0,1-4.37,5.32,41.32,41.32,0,0,1,3.75,3.42l2.6,2.6a9.9,9.9,0,0,0,6.47,3.32v.59c-5.75.26-7.23-1-10.16-3.91l-2.16-2.17a24.5,24.5,0,0,0-3.39-2.93c-.83,0-1.35.07-2.24.07-.72,0-1.15,0-1.68-.07Zm0-6.18a14.07,14.07,0,0,0,2,.06c3.65,0,6-1.54,6-5.49,0-3.05-1.38-5.42-6.44-5.42a12.78,12.78,0,0,0-1.65.07Z"/><path class="cls-1" d="M173.22,284.33l-17-17.81v14.1c0,2.36.52,2.86,3.32,2.86v.62h-7.63v-.62H152c2,0,2.7-.69,2.7-2.2V265.1a4.94,4.94,0,0,0-2.77-.82v-.62h5.17l15.48,16.14V266.72c0-2-.59-2.37-3.22-2.44v-.62h7.7v.62c-2.47,0-3,.43-3,1.71v18.34Z"/><path class="cls-1" d="M188.17,284.29c-6.44,0-11.87-4.14-11.87-10.29,0-6.53,5-11.17,12-11.17,6.21,0,11.54,4.24,11.54,10.16,0,6.64-5.33,11.3-11.71,11.3m-.69-20.64c-5.79,0-8.09,5.39-8.09,9.34,0,6.14,4.18,10.48,9.47,10.48s7.93-4.73,7.93-9.4c0-6.11-3.88-10.42-9.31-10.42"/><path class="cls-1" d="M211,266.61c0-2.14-.56-2.66-2.5-2.66h-.66v-.62c1.22-.07,2.83-.14,4.64-.2s3.81-.1,5.52-.1c8.68,0,12.53,4.4,12.53,9.82,0,5-3.85,10.92-12.17,10.92H207.83v-.63h.56c1.78,0,2.6-.49,2.6-2.4Zm2.73,14.72c0,1.35.1,1.81,2.69,1.81,4.41,0,6.25-.62,8.29-2.66a10.11,10.11,0,0,0,2.73-7.1,9.87,9.87,0,0,0-2.63-7.06c-1.51-1.52-3.85-2.67-8.45-2.67-1.35,0-2.24.1-2.63.13Z"/><path class="cls-1" d="M245,276.37h-.63c-.26-2.33-.88-2.59-2.23-2.59h-5.56v7c0,1.51.56,1.8,1.78,1.8h5.06c2.3,0,3-.88,3.82-3.71h.59l-.53,4.9H229.8v-.63h.92c2.63,0,3.09-.72,3.09-2.69V266.58c0-1.84-.42-2.63-2.63-2.63h-.72v-.63h15.78l.27,4.57h-.6c-.42-2.79-1.25-3.38-2.43-3.38h-6.94v8.08h5.89c1.18,0,1.74-.56,1.9-2.46H245Z"/><path class="cls-1" d="M54.39,307.55h-.63c-.27-2.36-.9-2.63-2.27-2.63H45.85V312c0,1.54.57,1.84,1.8,1.84h5.14c2.34,0,3-.9,3.87-3.77h.6l-.53,5H39v-.64h.93c2.67,0,3.14-.73,3.14-2.73V297.62c0-1.87-.43-2.67-2.67-2.67h-.73v-.64h16L56,299h-.6c-.44-2.84-1.27-3.43-2.47-3.43h-7v8.2h6c1.2,0,1.77-.57,1.94-2.5h.63Z"/><path class="cls-1" d="M73.31,315.06H58.4v-.64h1.1c1.53,0,2.1-.49,2.1-2.2V297.45c0-1.77-.53-2.5-2.63-2.5H58.5v-.63h9.84V295H67.11c-2.17,0-2.74.23-2.74,2.3v15.37c0,.9.37,1.24,1.33,1.24h4.91c2,0,2.57-.77,4.67-3.67h.6Z"/><path class="cls-1" d="M85.53,310a5.78,5.78,0,0,0,5.64,4.7c2.23,0,4.6-1.3,4.6-3.93,0-4.8-10.71-6.27-10.71-12.11,0-2.77,2.54-4.84,5.94-4.84,2.8,0,3.37.84,4.54.84a.64.64,0,0,0,.6-.33h.53l.57,4.23h-.57a5.9,5.9,0,0,0-5.37-3.94c-2.2,0-3.74,1.27-3.74,3.14,0,4.74,10.71,6,10.71,12.14,0,3.27-2.9,5.7-6.8,5.7-1.84,0-4.17-.9-4.64-.9a.82.82,0,0,0-.67.37H85.6L84.9,310Z"/><path class="cls-1" d="M106,305.85l-1.93,5.24a9,9,0,0,0-.67,2.1c0,.9.87,1.23,2.7,1.23h.54v.64H98.91v-.64c2.17,0,2.54-.4,3.6-3.3l6.08-16.57-.3-.74h2.9l7,18.51c.67,1.77,1.37,2.1,3,2.1v.64H112v-.64h.87c1.9,0,2.6-.19,2.6-1.13a3.85,3.85,0,0,0-.36-1.37l-2.24-6.07Zm3.41-9.23-2.84,7.77h5.77Z"/><path class="cls-1" d="M136,315.06H121v-.64h1.1c1.53,0,2.1-.49,2.1-2.2V297.45c0-1.77-.53-2.5-2.64-2.5h-.46v-.63H131V295h-1.24c-2.16,0-2.73.23-2.73,2.3v15.37c0,.9.37,1.24,1.33,1.24h4.91c2,0,2.57-.77,4.67-3.67h.6Z"/><path class="cls-1" d="M143.52,315.59l-7.24-18c-.83-2.1-1.23-2.6-3.27-2.6v-.63h9.18V295c-3.07.07-3.81.76-3.17,2.3l6,14.94,5.27-13.77a6.43,6.43,0,0,0,.57-2.07c0-1-.83-1.4-3.1-1.4v-.63h7.74V295c-1.74,0-2.64.8-3.44,2.87l-6.87,17.77Z"/><path class="cls-1" d="M158.71,305.85l-1.94,5.24a9.48,9.48,0,0,0-.67,2.1c0,.9.87,1.23,2.71,1.23h.53v.64h-7.71v-.64c2.17,0,2.54-.4,3.61-3.3l6.07-16.57-.3-.74h2.9l7,18.51c.66,1.77,1.36,2.1,3,2.1v.64h-9.17v-.64h.86c1.9,0,2.61-.19,2.61-1.13a3.84,3.84,0,0,0-.37-1.37l-2.24-6.07Zm3.4-9.23-2.84,7.77h5.78Z"/><path class="cls-1" d="M176.79,297.65c0-2.17-.56-2.7-2.53-2.7h-.67v-.64l4.71-.2c1.83-.06,3.87-.1,5.6-.1,8.81,0,12.71,4.47,12.71,10,0,5-3.9,11.07-12.34,11.07H173.59v-.63h.57c1.8,0,2.63-.51,2.63-2.44Zm2.77,14.94c0,1.37.1,1.84,2.74,1.84,4.47,0,6.34-.64,8.41-2.71a10.31,10.31,0,0,0,2.77-7.2,10,10,0,0,0-2.67-7.17c-1.54-1.53-3.91-2.7-8.58-2.7-1.37,0-2.27.1-2.67.13Z"/><path class="cls-1" d="M210.13,315.59c-6.54,0-12-4.2-12-10.44,0-6.63,5.1-11.33,12.21-11.33,6.31,0,11.71,4.3,11.71,10.3,0,6.74-5.4,11.47-11.88,11.47m-.7-20.94c-5.87,0-8.2,5.47-8.2,9.47,0,6.24,4.23,10.64,9.6,10.64s8-4.8,8-9.54c0-6.2-3.94-10.57-9.45-10.57"/><path class="cls-1" d="M227.76,311.92c0,2,.8,2.5,2.67,2.5h.76v.64h-9.44v-.64h.57c2,0,2.67-.53,2.67-2.76v-14c0-2.07-.57-2.67-2.5-2.67h-.74v-.64c.8,0,2.84-.13,4.21-.2s2-.1,4.2-.1c6.17,0,8.94,2.54,8.94,5.94a5.69,5.69,0,0,1-4.44,5.4,39.67,39.67,0,0,1,3.81,3.47l2.63,2.64a10,10,0,0,0,6.58,3.36v.61c-5.84.26-7.34-1-10.31-4l-2.2-2.21a24.81,24.81,0,0,0-3.44-3c-.84,0-1.37.06-2.27.06-.73,0-1.17,0-1.7-.06Zm0-6.27a14.47,14.47,0,0,0,2.07.07c3.7,0,6.14-1.57,6.14-5.57,0-3.1-1.41-5.5-6.54-5.5a13,13,0,0,0-1.67.07Z"/><polygon class="cls-1" points="143.46 61.67 145.91 66.63 151.39 67.43 147.43 71.29 148.36 76.75 143.46 74.17 138.56 76.75 139.49 71.29 135.53 67.43 141.01 66.63 143.46 61.67"/><polygon class="cls-1" points="179.49 70.87 181.94 75.83 187.42 76.63 183.45 80.49 184.39 85.95 179.49 83.37 174.59 85.95 175.52 80.49 171.56 76.63 177.04 75.83 179.49 70.87"/><polygon class="cls-1" points="207.11 93.23 209.57 98.19 215.05 98.99 211.08 102.85 212.02 108.31 207.11 105.73 202.21 108.31 203.15 102.85 199.18 98.99 204.66 98.19 207.11 93.23"/><polygon class="cls-1" points="222.9 125.24 225.34 130.2 230.83 131 226.86 134.86 227.8 140.32 222.9 137.74 217.99 140.32 218.93 134.86 214.96 131 220.44 130.2 222.9 125.24"/><polygon class="cls-1" points="223.5 162.4 225.95 167.36 231.43 168.15 227.47 172.02 228.4 177.47 223.5 174.9 218.6 177.47 219.53 172.02 215.57 168.15 221.05 167.36 223.5 162.4"/><polygon class="cls-1" points="207.15 194.56 209.6 199.52 215.08 200.32 211.11 204.18 212.05 209.64 207.15 207.06 202.24 209.64 203.18 204.18 199.21 200.32 204.7 199.52 207.15 194.56"/><polygon class="cls-1" points="179.66 216.94 182.11 221.9 187.59 222.69 183.63 226.56 184.56 232.01 179.66 229.44 174.76 232.01 175.69 226.56 171.73 222.69 177.21 221.9 179.66 216.94"/><polygon class="cls-1" points="143.44 224.79 145.89 229.76 151.38 230.55 147.41 234.42 148.35 239.87 143.44 237.29 138.54 239.87 139.48 234.42 135.51 230.55 140.99 229.76 143.44 224.79"/><polygon class="cls-1" points="108.03 216.96 110.48 221.92 115.96 222.72 112 226.58 112.93 232.04 108.03 229.46 103.13 232.04 104.06 226.58 100.1 222.72 105.58 221.92 108.03 216.96"/><polygon class="cls-1" points="80.53 194.6 82.98 199.56 88.46 200.36 84.5 204.22 85.43 209.68 80.53 207.1 75.63 209.68 76.56 204.22 72.6 200.36 78.08 199.56 80.53 194.6"/><polygon class="cls-1" points="64.16 162.63 66.61 167.6 72.09 168.39 68.12 172.26 69.06 177.71 64.16 175.14 59.25 177.71 60.19 172.26 56.22 168.39 61.7 167.6 64.16 162.63"/><polygon class="cls-1" points="64.16 125.24 66.61 130.2 72.09 131 68.12 134.86 69.06 140.32 64.16 137.74 59.25 140.32 60.19 134.86 56.22 131 61.7 130.2 64.16 125.24"/><polygon class="cls-1" points="79.7 93.27 82.15 98.23 87.63 99.03 83.67 102.89 84.6 108.35 79.7 105.77 74.8 108.35 75.73 102.89 71.77 99.03 77.25 98.23 79.7 93.27"/><polygon class="cls-1" points="107.98 70.89 110.43 75.85 115.92 76.65 111.95 80.51 112.89 85.97 107.98 83.39 103.08 85.97 104.02 80.51 100.05 76.65 105.53 75.85 107.98 70.89"/><path class="cls-1" d="M185.47,163.66l-.08,0a.68.68,0,0,0,0,1.36h.16a.68.68,0,1,0,0-1.36l-.08,0"/><path class="cls-1" d="M193,154.12a4.57,4.57,0,0,0-1.66.62,2.47,2.47,0,0,1-1,.39,2.45,2.45,0,0,0,.24-1.3c-.12-1.25-.12-3.29-.12-3.29s-.41,1.24-1,1.54-1.75.71-1.95,1.13-1,.41-1.37,1.65a4.57,4.57,0,0,1-.5,1.54,4.45,4.45,0,0,1-.26.42,28,28,0,0,0,.68-5.45c0-.29,0-.56,0-.85a8.63,8.63,0,0,0,.71-.68c.26-.43,3.44-1.52,3.88-2.38s.68-1.42.89-1.77a6.28,6.28,0,0,0,.5-2.31,19.12,19.12,0,0,0-.36-3.16,4.33,4.33,0,0,0-1.3,1,1.33,1.33,0,0,1-.35.36,2.47,2.47,0,0,0-.15-.88c-.44-1.1-1.12-2.55-1.12-2.55s-.59.92-.92,1.48c-.53,1.07-1.07,1.15-1.16,1.57s-.71.71-.94,1.57a4.4,4.4,0,0,0-.16.68c-.24-1.83-.54-3.49-.89-5,.16-.48.33-1.53.76-1.88a2.49,2.49,0,0,0,.71-2.07,7.92,7.92,0,0,0-.3-1.95c-.09-.5-1.66-2.66-1.54-3.28,0,0-.77,1.75-1.06,2.43a12.57,12.57,0,0,0-2.61-2c-.38-.68-.78-1.36-1.19-2,0-.2.06-.62.13-1.07a5,5,0,0,0,.11-2.16c-.2-.5-.62-.92-.82-1.54a3.12,3.12,0,0,0-.83-1.54c-.51-.53-1.24-1.24-1.24-1.24s-.21.91-.4,1.65a3.58,3.58,0,0,0-.52-.2c-.12,0-.38-.18-.67-.34-.36-.48-.7-.94-1-1.35a.66.66,0,0,0,.31-.56.68.68,0,0,0-1.36,0,.66.66,0,0,0,.68.68.67.67,0,0,0,.37-.11l.76,1.2c-.33-.19-.66-.37-.81-.47s-.41,1.86.21,3l-.29-.08a7.46,7.46,0,0,0-2.37-.2c.29,0,1,.8,1.12,1.21a3.54,3.54,0,0,0,1.25,1.54,7.29,7.29,0,0,1,1.53,1.15,4.77,4.77,0,0,0,2.61.5,1.5,1.5,0,0,0,.91.23l1.13,2a7.22,7.22,0,0,0-.24,1.77h0c-.5-.08-2.25-.5-2.25-.5a6,6,0,0,0,.9,2.58.65.65,0,0,0-.2.35.86.86,0,0,0,.15.62,2.2,2.2,0,0,0,1,.81l-8.46,5.95a116.84,116.84,0,0,0-.83-21.81c1-.38.75-.85.75-.85l-.4-1a.8.8,0,0,0,.33.08.62.62,0,0,0,.48-.2.74.74,0,0,0-.11-1,2.12,2.12,0,0,0-.65-.47l1.2-.18.69-2.91h0l-2.83,1-.07,1.22a2,2,0,0,0-.51-.6.7.7,0,1,0-.93,1,2.42,2.42,0,0,0,1,.55l0,.07L155.2,132l-9.42-15.73c.58-3.82-1.46-9.61-1.55-9.84a5.91,5.91,0,0,0,.17-1.57,1.32,1.32,0,0,0,.89-.89s0,0,0,0h0v0a15.59,15.59,0,0,0-1.09-1.22,2.67,2.67,0,0,0,.51.07h.07a.7.7,0,1,0,0-1.38h0a2.31,2.31,0,0,0-.8.1l.78-1-1.46-2.61h0l-1.45,2.62.78.94a2.2,2.2,0,0,0-.78-.1.86.86,0,0,0-.6.24.67.67,0,0,0-.19.45.64.64,0,0,0,.19.45.81.81,0,0,0,.59.24h.07a2.61,2.61,0,0,0,.41,0,9.84,9.84,0,0,0-.76.82.85.85,0,0,0-.2.24l0,.06,0,.1s0,0,0,.06a1.31,1.31,0,0,0,.44.52c-1.08,2-3.74,7.82-2.2,13.87L131.46,132l-14.23-15.69a2.15,2.15,0,0,0,1.13-.56.79.79,0,0,0,.28-.58.59.59,0,0,0-.16-.46.61.61,0,0,0-.44-.2.84.84,0,0,0-.59.21,2.41,2.41,0,0,0-.53.61l-.06-1.22-2.84-1h0l.7,2.91,1.2.18a1.92,1.92,0,0,0-.64.46.79.79,0,0,0-.28.58.59.59,0,0,0,.16.46.65.65,0,0,0,.44.2h0a1,1,0,0,0,.33-.07l-.4,1s-.28.47.75.85a116.84,116.84,0,0,0-.83,21.81L107,135.59a2.08,2.08,0,0,0,1-.81.85.85,0,0,0,.16-.55.66.66,0,0,0-.19-.41,6,6,0,0,0,.9-2.59s-1.74.42-2.25.5h0a7.22,7.22,0,0,0-.24-1.77l1.13-2a1.51,1.51,0,0,0,.91-.23,4.71,4.71,0,0,0,2.6-.5,7.6,7.6,0,0,1,1.54-1.15,3.52,3.52,0,0,0,1.24-1.54c.09-.41.83-1.21,1.13-1.21a7.45,7.45,0,0,0-2.37.2l-.29.08c.62-1.12.47-3.15.2-3s-.47.28-.8.47l.76-1.2a.68.68,0,1,0-.31-.57.64.64,0,0,0,.31.56c-.33.41-.67.87-1,1.35-.29.16-.55.29-.67.34a3.65,3.65,0,0,0-.53.2c-.19-.74-.39-1.65-.39-1.65s-.74.71-1.24,1.24a3.12,3.12,0,0,0-.83,1.54c-.21.62-.62,1-.83,1.54a4.88,4.88,0,0,0,.12,2.16c.07.45.11.87.13,1.07q-.61,1-1.2,2a12.8,12.8,0,0,0-2.6,2c-.29-.68-1.06-2.43-1.06-2.43.11.62-1.45,2.78-1.54,3.28a7.92,7.92,0,0,0-.3,1.95,2.46,2.46,0,0,0,.71,2.07c.43.35.6,1.4.75,1.88-.34,1.5-.64,3.16-.88,5,0-.16-.08-.38-.16-.68-.24-.86-.89-1.13-1-1.57s-.62-.5-1.15-1.57c-.33-.56-.92-1.48-.92-1.48s-.68,1.45-1.12,2.55a2.27,2.27,0,0,0-.15.88,1.37,1.37,0,0,1-.36-.36,4.21,4.21,0,0,0-1.3-1,19.18,19.18,0,0,0-.35,3.16,6.08,6.08,0,0,0,.5,2.31c.21.35.44.95.89,1.77s3.61,1.95,3.88,2.38a7.16,7.16,0,0,0,.71.68c0,.29,0,.56,0,.85a28.72,28.72,0,0,0,.67,5.45,4.17,4.17,0,0,1-.25-.42,4.73,4.73,0,0,1-.51-1.54c-.32-1.24-1.15-1.24-1.36-1.65s-1.33-.84-2-1.13-1-1.54-1-1.54,0,2-.11,3.29a2.45,2.45,0,0,0,.24,1.3,2.52,2.52,0,0,1-1-.39,4.49,4.49,0,0,0-1.65-.62,25.86,25.86,0,0,0,.62,3.28,6,6,0,0,0,1.24,2.16c.29.32.71.83,1.42,1.54s2.59.88,4.65,1.56a2.75,2.75,0,0,1,1.44,1.09c.08.26.14.49.18.66.23.9.53,2,.89,3.17a3.91,3.91,0,0,0-2.72-1.13c-.71-.12-3.49-.83-3.49-.83.66.49,1.07,1.85,1.48,3.08a9.17,9.17,0,0,0-3.23,0c.3.2,2.46,2.07,2.75,3.1a11.15,11.15,0,0,0,1.75,3.08c.33.21,1.24,1.33,1.87,2s3.07.3,3.9.3a7.73,7.73,0,0,1,1.88.6,20.49,20.49,0,0,0,2.61,2.72,7.05,7.05,0,0,1-2.27-1.49c-.4-.54.06,1.82.52,2.59a3.61,3.61,0,0,1-1.79-.52c-.68-.53-.09,1.87.65,2.55,1.59,1.41,1.44,1.64,1.7,1.73-1.34.27-3.21.73-3.78.39-.74-.41.83,1,1.78,1.39,1.36.51,1.18,1.39,2.66,1.87s3.23,1.12,4.14.94a14.16,14.16,0,0,1,2.25-.56c.9-.11,2.42-1.3,4.15-1.52a57,57,0,0,0,5,2.76l.27.13a4.84,4.84,0,0,0-.59.08c-.62.15-3.16.71-3.78.41s.64,1.37,1.4,2a12,12,0,0,1-3.48.26c-.82-.18,1.66,2.22,2.64,2.49l.11,0a6.87,6.87,0,0,1-1.88.43c-.86-.06,2.72,2.27,3.69,2.13,3.14-.45,6.1.62,7.55,0,1.3-.51,2.07-.86,2.72-1.07s1-.83,1.42-1.12a5,5,0,0,1,1.61-1.28l.06.1a27.7,27.7,0,0,0,3.31,0,4.87,4.87,0,0,0-1.35.81c-1.62.51-2.92.94-3.34,1.15a31.24,31.24,0,0,0-5.23,4.32s2.66-.21,3.07-.21,1.34-1.83,1.75-2.16c.12-.08.8-.43,1.79-.89-1.82,2.92.83,5.32.83,5.32-.71-.83.09-2.28.09-2.28l1.45.92c-1.82-3.12,1-5.2,1.93-5.78l.29-.11a1.47,1.47,0,0,0,1.15.63,1.44,1.44,0,0,0,1.11-.59l.56.22c1.08.73,3.39,2.73,1.7,5.63l1.45-.92s.8,1.45.09,2.28c0,0,2.59-2.34.89-5.22.88.41,1.47.71,1.58.79.41.33,1.33,2.16,1.74,2.16s3.08.21,3.08.21a30.92,30.92,0,0,0-5.24-4.32,32.57,32.57,0,0,0-3.09-1.07,4.89,4.89,0,0,0-1.44-.89,27.7,27.7,0,0,0,3.31,0l0,0a5.3,5.3,0,0,1,1.5,1.21c.41.29.76.89,1.42,1.12s1.42.56,2.72,1.07c1.45.59,4.41-.48,7.54,0,1,.14,4.56-2.19,3.7-2.13a6.92,6.92,0,0,1-1.89-.43l.12,0c1-.27,3.46-2.67,2.63-2.49a12,12,0,0,1-3.47-.26c.76-.62,2-2.28,1.4-2s-3.17-.26-3.79-.41a4.46,4.46,0,0,0-.58-.08l.26-.13a54.3,54.3,0,0,0,5-2.76c1.73.22,3.26,1.41,4.15,1.52a13.63,13.63,0,0,1,2.25.56c.92.18,2.58-.44,4.14-.94s1.31-1.36,2.67-1.87c.94-.35,2.51-1.8,1.77-1.39-.57.34-2.43-.12-3.77-.39.25-.09.11-.32,1.7-1.73.74-.68,1.33-3.08.65-2.55a3.64,3.64,0,0,1-1.79.52c.46-.77.92-3.13.51-2.59a6.9,6.9,0,0,1-2.26,1.49,21.17,21.17,0,0,0,2.61-2.72,7.6,7.6,0,0,1,1.88-.6c.83,0,3.28.32,3.9-.3s1.54-1.74,1.87-2a11.17,11.17,0,0,0,1.74-3.08c.3-1,2.46-2.9,2.75-3.1a9.1,9.1,0,0,0-3.22,0c.41-1.23.81-2.59,1.48-3.08,0,0-2.78.71-3.49.83-1.15.18-2.15.36-2.72,1.13.35-1.18.65-2.27.89-3.17,0-.17.1-.4.18-.66a2.71,2.71,0,0,1,1.44-1.09c2-.68,3.91-.83,4.65-1.56s1.12-1.22,1.42-1.54a6.26,6.26,0,0,0,1.24-2.16,25.86,25.86,0,0,0,.62-3.28m-7.39-2a29.05,29.05,0,0,1-.64,4.19,4.41,4.41,0,0,0-.47-1.68c-.29-.62-.71-.62-.91-1.24s-.92-.83-1.33-1.33A9.36,9.36,0,0,0,181,151a11.23,11.23,0,0,0-.2,3.9,3.3,3.3,0,0,1,.15.62l-.57-.21c-.54,1.21.09,2.45.29,3.58a9.14,9.14,0,0,0,.71,1.45c.21.41.12.79.33,1.12s.64.31,1.11.74a5.25,5.25,0,0,0,.25,1.61c-.4,1.32-.84,2.67-1.3,4a3.16,3.16,0,0,0-.5-1.42,5.09,5.09,0,0,1-.91-1.65c-.42-1.13-1.24-1.13-1.36-2.25a20.85,20.85,0,0,0-.39,2.45,6.09,6.09,0,0,0,.18,2.16,3.72,3.72,0,0,1-.18,1.38,4.22,4.22,0,0,0-.41-1.79,2,2,0,0,1-.21-1.24,11.49,11.49,0,0,1-1.58,2.09l-.38-.65c5.39-9.43,4.13-25.58,3.93-27.79.87-.19.72-.64.72-.64l-.17-1.05a.75.75,0,0,0,.27.13l.19,0a.66.66,0,0,0,.36-.11.67.67,0,0,0,.27-.49v0a3.21,3.21,0,0,0,1.1.89c.74.2,1.36.53,1.45.83h0a47.2,47.2,0,0,1,1.05,5.87h0c-.83-.92-1-2.66-2.87-3.61a5.27,5.27,0,0,1,0,1.25,6.64,6.64,0,0,0-.17,1.61,5.2,5.2,0,0,1-1.41-1.38,8.59,8.59,0,0,0,.42,3.9c.73,1.33.73,2,1.53,2.34a3.57,3.57,0,0,1,1.24.74,2.8,2.8,0,0,0,1.25.5.36.36,0,0,1,.27.16,6.25,6.25,0,0,0,.16.62c0,.55,0,1.07,0,1.53M113.91,141l5.47,3.85a18.63,18.63,0,0,0,.78,6.06l-4.54,7.59c-.76-1.63-2.67-7-1.71-17.5m-8.44-4.47a1.58,1.58,0,0,1,1-.71,1.76,1.76,0,0,1-.36,1.15.55.55,0,0,1-.29.21.33.33,0,0,1-.28,0,.34.34,0,0,1-.13-.24.59.59,0,0,1,.11-.37m18-12.66,4.35,4.8c-.1,1.32-.28,5.45.86,8l-4,6.63c-1-1.92-2.91-7.59-1.25-19.47m17-3.1a17.29,17.29,0,0,1,5.83,0l.62,1a16.22,16.22,0,0,0-7.07,0Zm.5-.83,2.42-4,2.41,4a18.17,18.17,0,0,0-4.83,0m-1.66,2.78a15.44,15.44,0,0,1,8.15,0l.67,1.12a14.33,14.33,0,0,0-9.5,0ZM137.92,125a13.67,13.67,0,0,1,10.79,0l16.73,27.95H159.3a7.62,7.62,0,0,1-.8-.56,2.77,2.77,0,0,0-.29-.22,1.84,1.84,0,0,0-1.37-.26,2.7,2.7,0,0,0-.72.26,3.92,3.92,0,0,0-.64.42l-.07,0a1.69,1.69,0,0,1-.31-.13,6.86,6.86,0,0,1-1.51-1,2.51,2.51,0,0,0-.48-.32,2,2,0,0,0-.92-.23,2.38,2.38,0,0,0-.65.1,3.47,3.47,0,0,0-.85.4,6,6,0,0,0-.52.36s0,0-.06,0l0,0a6,6,0,0,0-1-.5,6.19,6.19,0,0,1-.89-.45,8.21,8.21,0,0,1-1.14-.82,2.71,2.71,0,0,0-.41-.28,2.13,2.13,0,0,0-1-.31,2.36,2.36,0,0,0-.7,0,3.63,3.63,0,0,0-.9.34c-.15.08-.29.18-.44.28v-9.69c1-.07,1.81-.42,1.81-.85s-.73-3.35-1.71-4a1.81,1.81,0,0,0-2-.06s-1.28.74-.62,1.78c0,0,.13.31.69.09a.75.75,0,0,0,.45-.56V137c0,.36-.5.55-.52.57a9.34,9.34,0,0,0-.52,2c0,.43.8.79,1.83.85v9.82l-.1-.05a11.19,11.19,0,0,1-1.21-.87,3.19,3.19,0,0,0-.44-.31,2.36,2.36,0,0,0-1-.32,2.83,2.83,0,0,0-.82,0,3.55,3.55,0,0,0-.94.35,6.3,6.3,0,0,0-.88.57.1.1,0,0,1-.07,0l-.07,0-.38-.22a4,4,0,0,0-.56-.26,6,6,0,0,1-.73-.33,10.75,10.75,0,0,1-1.92-1.29l-.17-.13a3,3,0,0,0-1.58-.63h-.45a3.71,3.71,0,0,0-1.09.27,6.21,6.21,0,0,0-1.13.62,11.26,11.26,0,0,0-1.13.94,16.88,16.88,0,0,0-1.27,1.4c-.38.48-.74,1-1.07,1.49l-.06.08c-.24.29-.5.58-.77.85s-.34.31-.51.47h-3.42ZM162,143.35l-4-6.62c1.13-2.59.95-6.72.86-8l4.35-4.8c1.65,11.86-.3,17.54-1.25,19.46m18.27-7.51a1.55,1.55,0,0,1,.95.73.5.5,0,0,1,.1.35.31.31,0,0,1-.13.24.31.31,0,0,1-.27,0,.54.54,0,0,1-.3-.22,1.66,1.66,0,0,1-.35-1.14m-9.2,22.67-4.54-7.59a18.5,18.5,0,0,0,.77-6l5.48-3.85c1,10.53-.95,15.85-1.71,17.49m-58.67,9.16,4.27-7.14h51.8l-.06,0-.27-.14a9.25,9.25,0,0,1-.88-.62c-.51-.4-1-.83-1.47-1.27-.68-.64-1.34-1.31-2-2-.42-.45-.84-.89-1.25-1.36a7.53,7.53,0,0,0-.56-.57,7,7,0,0,0-1.13-.9,6,6,0,0,0-.56-.3h5.46l8.56,14.32Zm8.56-14.32h3.17a22.78,22.78,0,0,1-1.91,1.49L122,155a12.51,12.51,0,0,0-1,.71c-.54.41-1,.85-1.56,1.3s-1,.91-1.47,1.38Zm22.27-1.94.37.16a2.87,2.87,0,0,1,.4.18,8.27,8.27,0,0,1,1.05.69,11.35,11.35,0,0,1,1.51,1.43c.7.79,1.42,1.56,2.16,2.32l.91.93c.78.77,1.58,1.53,2.4,2.25l.16.13,0,0v0h-4a.17.17,0,0,1-.12,0l-.27-.21c-.56-.44-1.11-.91-1.64-1.38s-1.21-1.12-1.79-1.69q-1.92-1.89-3.73-3.88c-.21-.23-.41-.46-.63-.69a12,12,0,0,0-1.49-1.37l-.06,0,0,0a3.38,3.38,0,0,1,.83-.46,2.13,2.13,0,0,1,.51-.14,1.48,1.48,0,0,1,.9.16,2.4,2.4,0,0,1,.37.25,11.05,11.05,0,0,0,1,.72,9.17,9.17,0,0,0,1.18.67m16.33,2.69.19.08a3.61,3.61,0,0,1,.44.22,6.46,6.46,0,0,1,1.06.81,6.92,6.92,0,0,1,.6.61c.38.43.76.85,1.16,1.26l1.08,1.1c.44.45.89.87,1.35,1.29,0,0,.05,0,.06.07H163.2a.19.19,0,0,1-.14-.05c-.42-.35-.84-.71-1.24-1.08s-.78-.73-1.16-1.11c-.84-.83-1.65-1.68-2.44-2.56-.17-.18-.33-.37-.51-.55a8.8,8.8,0,0,0-1.27-1.09l-.06,0,0,0a1.8,1.8,0,0,1,.62-.27.86.86,0,0,1,.63.1,1.84,1.84,0,0,1,.22.17,7.58,7.58,0,0,0,1.67,1m-3.06.3a7.85,7.85,0,0,1,.87.86c.58.65,1.18,1.29,1.79,1.93s1.11,1.12,1.69,1.66l.69.63.06.06h-3.22a.14.14,0,0,1-.11,0l-.63-.51c-.59-.51-1.17-1-1.73-1.57l-1-1c-.84-.84-1.65-1.7-2.45-2.58l-.53-.58a9.57,9.57,0,0,0-.93-.87l0,0v0l0,0a3.25,3.25,0,0,1,.68-.39,1.53,1.53,0,0,1,.48-.11,1,1,0,0,1,.51.11,1.61,1.61,0,0,1,.3.21,8.93,8.93,0,0,0,1.59,1,4.25,4.25,0,0,0,.49.21,3.61,3.61,0,0,1,.44.22,7.49,7.49,0,0,1,1,.74m-4.91,0q.68.76,1.38,1.5c.42.45.85.89,1.29,1.33.74.74,1.49,1.47,2.28,2.16l.18.15,0,0h-2.87a.2.2,0,0,1-.13,0l-.63-.51c-.67-.57-1.32-1.16-2-1.77l-1-1c-.9-.9-1.78-1.83-2.64-2.77-.2-.22-.39-.44-.6-.66a11.44,11.44,0,0,0-1.66-1.44,8.86,8.86,0,0,0-.9-.53l0,0,0,0a2.93,2.93,0,0,1,.85-.37,1.75,1.75,0,0,1,.46,0,1.37,1.37,0,0,1,.52.16,2.22,2.22,0,0,1,.35.25,10.07,10.07,0,0,0,2,1.28l.31.14a2.76,2.76,0,0,1,.52.25,7.91,7.91,0,0,1,1.07.75,11.86,11.86,0,0,1,1.19,1.16M138.93,152c.28.28.54.57.8.86l.88,1c.53.57,1.07,1.14,1.61,1.69,1,1,2,2,3,2.91.39.36.79.72,1.21,1.06,0,0,0,0,.06.06H118.17s0,0,0-.05l.39-.39q.63-.63,1.29-1.23c.53-.48,1.07-.95,1.64-1.39a11.35,11.35,0,0,1,1.08-.73l.31-.21a21.77,21.77,0,0,0,2.54-2.06,12.74,12.74,0,0,0,1.28-1.37.36.36,0,0,0,.07-.1,15.07,15.07,0,0,1,1.1-1.52,13.43,13.43,0,0,1,1-1.12,8.16,8.16,0,0,1,1.2-1,3.9,3.9,0,0,1,.9-.48,2.59,2.59,0,0,1,.66-.18,1.94,1.94,0,0,1,1.14.22,3.41,3.41,0,0,1,.44.3,10.71,10.71,0,0,0,1,.75,10.9,10.9,0,0,0,1.24.73c.23.11.46.22.69.31a3.82,3.82,0,0,1,.46.21,9.55,9.55,0,0,1,1.13.74,14.24,14.24,0,0,1,1.17,1m-6.39,17.53a13.52,13.52,0,0,0,4.56,2.2c-1.09.33-8.22,2.21-14.31-2.2Zm9.72,5.78s.67-3.55,1.07-5.78h0c.39,2.23,1.07,5.78,1.07,5.78a4.07,4.07,0,0,1-1.07,3.3,4,4,0,0,1-1.07-3.3m11.87-5.78h9.75c-6.09,4.41-13.22,2.53-14.32,2.2a13.47,13.47,0,0,0,4.57-2.2m24.8-34.93a.51.51,0,0,1-.09-.39.37.37,0,0,1,.1-.18l.09.07a2.94,2.94,0,0,1,.86.86.92.92,0,0,1,0,.37,1.74,1.74,0,0,1-1-.73m-7.66-17.06a.43.43,0,0,1-.6-.05,1.82,1.82,0,0,1-.57-1l0-.06a1.52,1.52,0,0,1,1,.5.42.42,0,0,1,.1.58m-.81-2.8,1.1-.38h0l-.27,1.13-.88.13Zm-2,.21a.31.31,0,0,1,.24-.1.59.59,0,0,1,.37.15,1.7,1.7,0,0,1,.57,1,.3.3,0,0,0-.19,0,1.91,1.91,0,0,1-.89-.47.43.43,0,0,1-.1-.58m-23.74-13.23h.12a.44.44,0,0,1,.47.37c0,.2-.21.36-.48.36a1.68,1.68,0,0,1-1.14-.36,1.45,1.45,0,0,1,1-.37m-1.35-2.17h0l.56,1-.56.68-.56-.68Zm-1.45,2.91h0a.53.53,0,0,1-.37-.14.31.31,0,0,1-.1-.23.3.3,0,0,1,.1-.22.55.55,0,0,1,.39-.14,1.51,1.51,0,0,1,1.13.36,1.72,1.72,0,0,1-1.15.37m1.21,6.76a10.45,10.45,0,0,0,1.14-2.76,14.61,14.61,0,0,1-.38,6.6l-.52-.87-1.72,2.87a9.41,9.41,0,0,1,1.48-5.84M117.65,115a.49.49,0,0,1,.37-.14.3.3,0,0,1,.23.1.31.31,0,0,1,.07.23.52.52,0,0,1-.18.36,1.81,1.81,0,0,1-1,.49h-.06a1.54,1.54,0,0,1,.6-1m-2.54-.63h0l1.1.38,0,.88h0l-.87-.13Zm.51,3.28a.3.3,0,0,1-.23-.1.31.31,0,0,1-.07-.23.52.52,0,0,1,.19-.37,1.58,1.58,0,0,1,1-.49h.08a1.78,1.78,0,0,1-.6,1,.54.54,0,0,1-.37.14m-7.89,17a1.7,1.7,0,0,1-1,.72.83.83,0,0,1,0-.35,3.07,3.07,0,0,1,.88-.88s0,0,.08-.06a.35.35,0,0,1,.1.21.56.56,0,0,1-.11.36m-6.68,16a4.37,4.37,0,0,0,.17-.62.36.36,0,0,1,.27-.16,2.76,2.76,0,0,0,1.24-.5,3.69,3.69,0,0,1,1.24-.74c.8-.3.8-1,1.54-2.34a8.54,8.54,0,0,0,.41-3.9,5,5,0,0,1-1.4,1.38,7.83,7.83,0,0,0-.17-1.61,5.27,5.27,0,0,1,0-1.25c-1.84.95-2,2.69-2.87,3.61h0a49.09,49.09,0,0,1,1-5.87h0c.09-.3.71-.63,1.45-.83a3.1,3.1,0,0,0,1.08-.87h0a.62.62,0,0,0,.63.6.57.57,0,0,0,.18,0,.79.79,0,0,0,.28-.13l-.17,1.05s-.15.45.72.64c-.21,2.21-1.47,18.37,3.94,27.81l-.37.62a11,11,0,0,1-1.58-2.08,2,2,0,0,1-.21,1.24,4.08,4.08,0,0,0-.41,1.79,3.72,3.72,0,0,1-.18-1.38,6.34,6.34,0,0,0,.18-2.16,20.85,20.85,0,0,0-.39-2.45c-.12,1.12-1,1.12-1.36,2.25a5.12,5.12,0,0,1-.92,1.65,3,3,0,0,0-.49,1.42c-.47-1.34-.9-2.69-1.3-4a5.6,5.6,0,0,0,.25-1.61c.47-.43.92-.47,1.11-.74s.12-.71.32-1.12a8.35,8.35,0,0,0,.71-1.45c.21-1.13.83-2.37.3-3.58l-.57.21a2.67,2.67,0,0,1,.15-.62,11,11,0,0,0-.21-3.9,9.54,9.54,0,0,0-1.24,1.12c-.41.5-1.12.71-1.33,1.33s-.62.62-.92,1.24a4.41,4.41,0,0,0-.46,1.68,29.05,29.05,0,0,1-.64-4.19c0-.46,0-1,0-1.53m46.45,42.62a5.77,5.77,0,0,0-2.65.67l0-.08a47.46,47.46,0,0,1,3.6-5.27,4.51,4.51,0,0,1-.92,4.68m-5.51.67a5.77,5.77,0,0,0-2.65-.67,4.51,4.51,0,0,1-.92-4.68,47.46,47.46,0,0,1,3.6,5.27l0,.08m31.67-13a1,1,0,0,0,.13-.3,6.35,6.35,0,0,0,.41-2,11.12,11.12,0,0,0-.62-2.45c-.29-.74-1-2.45-1.74-2.78,0,0-.59,1.95-.8,2.66a6.43,6.43,0,0,1-.74,2c-.09.13-.26.42-.46.78a6,6,0,0,1,0-1.38c.12-1.36-2-3.48-2-3.48.21.59-.62,2.95-1,3.48a7.42,7.42,0,0,0-1.13,3,3.48,3.48,0,0,1-.83,2c-.61.84.08,4.35.16,4.75-1.38.85-2.81,1.68-4.15,2.35-.4.2-.85.4-1.34.61l.27-.25a6.92,6.92,0,0,0,2-3.17c.64-.11-.86-.27-1.73-.2.51-.77,1.22-1.83,1.7-2.73.39-.74-3.31.24-3.31.24l-1,.38a14.49,14.49,0,0,0,.59-2.6c0-.29-1.56.21-2.8.74a18.62,18.62,0,0,0-2.61,1.87c-1.09.7-1.24,2.48-1.74,3.31a6.71,6.71,0,0,0-.65,1.38,1.62,1.62,0,0,0-.73-1.38h0l0,0-.06,0-.2-.06c-.24-.05-.62-.11-1.23-.18a2.68,2.68,0,0,0-2.78,1.16,32.12,32.12,0,0,0-1.35,4.34,1.2,1.2,0,0,0-1,0,32.12,32.12,0,0,0-1.35-4.34,2.68,2.68,0,0,0-2.78-1.16c-.61.07-1,.13-1.23.18l-.2.06-.06,0,0,0h0c-.38.2-.75.7-.76,1.92a5.16,5.16,0,0,0-.77-1.92c-.5-.83-.65-2.61-1.75-3.31a18,18,0,0,0-2.6-1.87c-1.24-.53-2.78-1-2.81-.74a15.87,15.87,0,0,0,.6,2.6l-1-.38s-3.7-1-3.32-.24c.49.9,1.2,2,1.71,2.73-.88-.07-2.38.09-1.74.2a7.14,7.14,0,0,0,2,3.17l.28.25c-.49-.21-1-.41-1.35-.61-1.33-.67-2.76-1.5-4.14-2.35.08-.4.77-3.91.15-4.75a3.48,3.48,0,0,1-.82-2,7.57,7.57,0,0,0-1.13-3c-.41-.53-1.24-2.89-1-3.48,0,0-2.15,2.12-2,3.48a5.36,5.36,0,0,1,0,1.38c-.19-.36-.36-.65-.45-.78a6,6,0,0,1-.74-2c-.21-.71-.8-2.66-.8-2.66-.74.33-1.45,2-1.75,2.78a12.38,12.38,0,0,0-.62,2.45c-.12.51.33,1.48.42,2a.92.92,0,0,0,.12.3,16.6,16.6,0,0,1-4-4.13,2.06,2.06,0,0,1,.44-1.08,8.23,8.23,0,0,0,1.54-2.37,5.64,5.64,0,0,0,0-1.86,16.93,16.93,0,0,1,.29-1.83l0-.12h1.73c3.07,2.26,14.11,9.22,27.09,3.55a1.63,1.63,0,0,1-.21.47s-2.79,3.78,3.52,5.06h0c6.3-1.28,3.51-5.06,3.51-5.06a2,2,0,0,1-.2-.47c13,5.68,24-1.29,27.1-3.55h1.74l0,.12a16.93,16.93,0,0,1,.29,1.83,5.38,5.38,0,0,0,0,1.86,8,8,0,0,0,1.54,2.37,2.15,2.15,0,0,1,.43,1.08,16.43,16.43,0,0,1-4.05,4.13"/><path class="cls-1" d="M163.61,184.46a.6.6,0,0,0-.62.59.61.61,0,0,0,.62.63.63.63,0,0,0,.62-.63.62.62,0,0,0-.62-.59"/><path class="cls-1" d="M167.1,188.75a.62.62,0,0,0-.62.62.6.6,0,0,0,.62.62.63.63,0,0,0,.62-.62.64.64,0,0,0-.62-.62"/><path class="cls-1" d="M175.21,175.2a.63.63,0,0,0-.62.63.64.64,0,0,0,.62.62.63.63,0,0,0,.62-.62.61.61,0,0,0-.62-.63"/><path class="cls-1" d="M179.56,178.28a.69.69,0,0,0,.68.68.66.66,0,0,0,.68-.68.69.69,0,0,0-.68-.68.72.72,0,0,0-.68.68"/><path class="cls-1" d="M181.15,163.76a.66.66,0,0,0,.68-.68.69.69,0,0,0-.68-.68.72.72,0,0,0-.68.68.69.69,0,0,0,.68.68"/><path class="cls-1" d="M183.23,150.1a.66.66,0,0,0-.68.68.68.68,0,1,0,1.36,0,.67.67,0,0,0-.68-.68"/><path class="cls-1" d="M187,139a.67.67,0,1,0,0-1.33.68.68,0,0,0-.68.68.69.69,0,0,0,.68.65"/><path class="cls-1" d="M182.19,140.25a.67.67,0,0,0,.68-.68.68.68,0,1,0-.68.68"/><path class="cls-1" d="M178.14,129.19a.67.67,0,0,0-.68-.65.67.67,0,1,0,0,1.33.67.67,0,0,0,.68-.68"/><path class="cls-1" d="M181.06,127a.66.66,0,0,0,.68-.68.68.68,0,0,0-1.36,0,.67.67,0,0,0,.68.68"/><path class="cls-1" d="M187.87,150.9a.67.67,0,0,0,.68.65.65.65,0,1,0,0-1.3.66.66,0,0,0-.68.65"/><path class="cls-1" d="M123.08,184.46a.62.62,0,0,0-.62.59.63.63,0,0,0,.62.63.61.61,0,0,0,.62-.63.6.6,0,0,0-.62-.59"/><path class="cls-1" d="M120.21,189.37a.62.62,0,0,0-.62-.62.64.64,0,0,0-.62.62.62.62,0,0,0,.62.62.61.61,0,0,0,.62-.62"/><path class="cls-1" d="M111.48,175.2a.61.61,0,0,0-.62.63.63.63,0,0,0,.62.62.64.64,0,0,0,.62-.62.63.63,0,0,0-.62-.63"/><path class="cls-1" d="M106.45,179a.69.69,0,0,0,.68-.68.72.72,0,0,0-.68-.68.69.69,0,0,0-.68.68.66.66,0,0,0,.68.68"/><path class="cls-1" d="M105.53,162.4a.69.69,0,0,0-.68.68.67.67,0,0,0,.68.68.68.68,0,0,0,.68-.68.71.71,0,0,0-.68-.68"/><path class="cls-1" d="M102,164.32a.67.67,0,0,0-.68-.68.68.68,0,1,0,0,1.36.67.67,0,0,0,.68-.68"/><path class="cls-1" d="M103.46,151.46a.69.69,0,0,0,.68-.68.68.68,0,1,0-1.36,0,.69.69,0,0,0,.68.68"/><path class="cls-1" d="M99.68,139a.67.67,0,1,0,0-1.33.67.67,0,1,0,0,1.33"/><path class="cls-1" d="M104.5,138.89a.68.68,0,0,0-.68.68.68.68,0,0,0,1.36,0,.69.69,0,0,0-.68-.68"/><path class="cls-1" d="M108.55,129.19a.66.66,0,0,0,.68.68.67.67,0,1,0,0-1.33.66.66,0,0,0-.68.65"/><path class="cls-1" d="M105.62,127a.66.66,0,0,0,.68-.68.68.68,0,0,0-1.36,0,.67.67,0,0,0,.68.68"/><path class="cls-1" d="M98.82,150.9a.67.67,0,1,0-.68.65.66.66,0,0,0,.68-.65"/><path class="cls-1" d="M135.34,141.38c.3-.06.39,0,.5.29l.18-.06-.18-.41,1.19-.5-.12-.24-1.66.74Z"/><path class="cls-1" d="M135,139.24l-.23,0,.2.92,1-.09,0-.18a.41.41,0,0,1-.27-.29.39.39,0,0,1,.3-.47.37.37,0,0,1,.5.26.33.33,0,0,1-.2.45l.05.23a.53.53,0,0,0,.36-.68.6.6,0,0,0-.77-.5.57.57,0,0,0-.44.71.54.54,0,0,0,.2.32l-.5,0Z"/><path class="cls-1" d="M135,137.77c.33,0,.42-.24.48-.36l.12-.38c.08-.3.14-.39.35-.36s.3.33.27.5-.15.51-.48.48l0,.23a.6.6,0,0,0,.51-.14.84.84,0,0,0,.2-.54c0-.32-.06-.74-.5-.77a.44.44,0,0,0-.5.36l-.18.53a.27.27,0,0,1-.27.21c-.26,0-.29-.3-.26-.47a.39.39,0,0,1,.41-.42v-.23c-.2,0-.59,0-.65.68a.58.58,0,0,0,.53.68"/><polygon class="cls-1" points="136.97 134.93 136.76 134.87 136.41 135.93 135.81 135.73 136.14 134.78 135.93 134.69 135.61 135.66 135.08 135.49 135.43 134.45 135.19 134.37 134.78 135.66 136.56 136.23 136.97 134.93"/><path class="cls-1" d="M137.23,134.52l-.68-.42.29-.49a.54.54,0,0,0-.17-.79.46.46,0,0,0-.38-.06.62.62,0,0,0-.36.27l-.41.71,1.56,1Zm-1.39-.89.28-.43a.3.3,0,0,1,.28-.17.37.37,0,0,1,.12.07.27.27,0,0,1,.07.44l-.24.39Z"/><polygon class="cls-1" points="137.12 131.91 138.3 133.03 138.45 132.86 137.29 131.73 137.74 131.26 137.56 131.11 136.52 132.21 136.67 132.35 137.12 131.91"/><polygon class="cls-1" points="139.28 132.18 138.15 130.7 137.97 130.85 139.07 132.32 139.28 132.18"/><polygon class="cls-1" points="140.78 131.29 140.7 131.11 139.69 131.62 139.42 131.08 140.31 130.61 140.22 130.4 139.3 130.88 139.04 130.37 140.01 129.87 139.93 129.66 138.71 130.28 139.57 131.94 140.78 131.29"/><path class="cls-1" d="M141.23,131.17l-.24-1.09a1.5,1.5,0,0,1-.11-.45l.85,1.42L142,131l.18-1.63a1.76,1.76,0,0,1,.09.44l.23,1.07.24,0-.39-1.84-.35.09-.18,1.66-.86-1.42-.35.06.41,1.8Z"/><path class="cls-1" d="M143.79,130.86c.42,0,.66-.19.66-.49a.44.44,0,0,0-.32-.47.39.39,0,0,0,.26-.38c0-.27-.14-.48-.49-.51l-.81,0-.09,1.85Zm-.42-1.62.4,0c.27,0,.36.08.36.26s-.14.27-.38.24h-.43Zm.4.81c.18,0,.38.06.38.3s-.14.3-.38.3l-.47,0,0-.6Z"/><path class="cls-1" d="M145.09,130.26l.6.18c.3.08.26.25.24.4a1,1,0,0,0-.09.45l.3.08v0c-.06-.06,0-.09,0-.21l0-.32c.09-.24,0-.32-.09-.38.12-.06.3-.1.37-.37s-.16-.55-.45-.63l-.83-.28-.49,1.81.23.06Zm.3-.78.54.19c.11,0,.3.08.21.34s-.23.22-.41.19l-.51-.15Z"/><polygon class="cls-1" points="147.5 132.18 147.59 132 146.64 131.44 146.94 130.91 147.83 131.41 147.94 131.23 147.06 130.7 147.35 130.23 148.3 130.79 148.42 130.58 147.24 129.9 146.32 131.5 147.5 132.18"/><path class="cls-1" d="M148.65,133.35a.85.85,0,0,0,1.24,0,.8.8,0,0,0,.19-1.19l-.49-.56-1.41,1.18Zm1.19-1c.21.24.18.49-.15.79s-.62.26-.83,0l-.27-.32,1-.83Z"/><polygon class="cls-1" points="149.9 135.37 150.1 135.28 149.6 134.28 150.16 134.01 150.61 134.93 150.81 134.81 150.34 133.92 150.87 133.66 151.35 134.63 151.55 134.54 150.93 133.33 149.28 134.16 149.9 135.37"/><path class="cls-1" d="M151.46,136.56l-1.27.17,0,.24,1.8-.27,0-.18c-.29,0-.32-.11-.41-.41l-.17,0Z"/><path class="cls-1" d="M151.61,137.63a.34.34,0,0,0-.36.26.48.48,0,0,0-.45-.36.53.53,0,0,0-.43.17.78.78,0,0,0-.14.45.53.53,0,0,0,.53.61.42.42,0,0,0,.47-.25.34.34,0,0,0,.36.23c.24,0,.49-.12.49-.53a.49.49,0,0,0-.47-.58m-.85.88c-.27,0-.3-.22-.3-.36a.3.3,0,0,1,.34-.32.29.29,0,0,1,.28.36.28.28,0,0,1-.32.32m.85,0a.35.35,0,0,1-.28-.34.27.27,0,0,1,.28-.26c.12,0,.27.06.24.3s-.15.3-.24.3"/><path class="cls-1" d="M151.35,139.16l0,.23c.12,0,.42.12.33.45s-.26.32-.38.26-.3-.2-.36-.41l-.06-.27a.86.86,0,0,0-.62-.59l-.3,1.21.21.06.24-1c.09,0,.2.12.26.38l.07.21c.08.32.17.56.47.62a.56.56,0,0,0,.68-.41.6.6,0,0,0-.5-.77"/><path class="cls-1" d="M151,140.87l-.17.39-1.16-.57-.12.24,1.66.77.06-.18c-.24-.18-.21-.3-.09-.59Z"/><path class="cls-1" d="M141.08,147.4l.2,0,1.36-5.61-.2,0-1.34,5.54Z"/><path class="cls-1" d="M140.89,145l.19.07,1.14-3.32-.2-.06L140.9,145Z"/><path class="cls-1" d="M139,147.05l.18.08,2.63-5.52-.19-.08L139,147Z"/><path class="cls-1" d="M138.54,146.13l2.85-4.7-.18-.1L138.37,146Z"/><path class="cls-1" d="M136.78,146.2l0,.05.16.12L141,141.2l-.15-.13Z"/><path class="cls-1" d="M137.05,144.93l3.58-4h0l-.15-.13-3.59,4Z"/><path class="cls-1" d="M140.32,140.65l-.12-.15-5.31,4.68.13.15,5.29-4.66Z"/><path class="cls-1" d="M140,140.3h0c0-.06-.09-.1-.13-.16l-2.8,2,0,0,.11.16Z"/><path class="cls-1" d="M139.78,139.94l-.09-.17-2,1.09.1.18Z"/><path class="cls-1" d="M137.44,140.31l.08.18,2.07-.9-.1-.18Z"/><polygon class="cls-1" points="137.2 139.69 137.26 139.88 139.37 139.2 139.41 139.18 139.35 138.99 137.2 139.69"/><path class="cls-1" d="M139.29,138.77a1.8,1.8,0,0,0,0-.19l-2.2.48,0,.2Z"/><path class="cls-1" d="M136.92,138.4l0,.2,2.27-.25c0-.06,0-.13,0-.2Z"/><path class="cls-1" d="M136.89,137.93l2.28,0v-.2l-2.28,0Z"/><path class="cls-1" d="M136.93,137.31l2.23.19h0c0-.07,0-.14,0-.2l-2.22-.2h-.05Z"/><path class="cls-1" d="M137,136.59l2.25.49a1.42,1.42,0,0,1,0-.2l-2.25-.49Z"/><path class="cls-1" d="M137.17,136l2.13.7h0l.06-.19-2.15-.71Z"/><path class="cls-1" d="M137.44,135.19l-.08.18,2.11.9c0-.07.06-.12.08-.19l-2.06-.88Z"/><path class="cls-1" d="M137.65,134.77l2,1.09h0a1.62,1.62,0,0,1,.1-.18l-2-1.1Z"/><path class="cls-1" d="M138,134.22l1.83,1.3c0-.06.09-.1.13-.16l-1.84-1.31Z"/><path class="cls-1" d="M138.6,133.53l-.13.16,1.68,1.45h0l.13-.15-1.65-1.43Z"/><path class="cls-1" d="M139.08,133.08l-.15.14,1.54,1.61a.93.93,0,0,1,.15-.13l-1.51-1.59Z"/><path class="cls-1" d="M139.59,132.67l-.16.12,1.39,1.74a1,1,0,0,1,.16-.12l-1.36-1.71Z"/><path class="cls-1" d="M140.23,132.3l-.18.1,1.1,1.89v0l.18-.1-1.09-1.87Z"/><path class="cls-1" d="M140.8,132l-.18.09.91,2,.19-.08-.9-1.93Z"/><path class="cls-1" d="M141.45,131.81l-.2.07.73,2.06a1.06,1.06,0,0,1,.19-.06l-.71-2Z"/><path class="cls-1" d="M142.11,131.61l-.19,0,.44,2.16h0l.19,0-.44-2.12Z"/><path class="cls-1" d="M142.83,133.75l.2,0-.22-2.2-.2,0Z"/><path class="cls-1" d="M143.41,131.51h-.21l0,2.2h0l.17,0,0-2.17Z"/><path class="cls-1" d="M143.64,133.72v0l.2,0,.22-2.23-.21,0Z"/><path class="cls-1" d="M144.23,133.84h0l.44-2.19-.2,0-.43,2.18.15.05"/><path class="cls-1" d="M145.35,131.87l-.19-.06-.7,2.05v0l.19.05.69-2Z"/><path class="cls-1" d="M146,132.12l-.18-.08-.89,2v0a1.51,1.51,0,0,1,.18.09l.88-2Z"/><polygon class="cls-1" points="146.33 132.29 145.27 134.17 145.25 134.22 145.42 134.32 146.5 132.39 146.33 132.29"/><path class="cls-1" d="M145.59,134.41l0,0,.16.13,1.34-1.74,0,0-.16-.12Z"/><polygon class="cls-1" points="145.93 134.7 146.08 134.84 147.55 133.24 147.59 133.2 147.43 133.07 145.93 134.7"/><polygon class="cls-1" points="146.24 135 146.37 135.15 148.02 133.67 147.89 133.52 146.24 135"/><path class="cls-1" d="M146.56,135.34l0,0c0,.06.09.1.13.16l1.74-1.29,0,0-.12-.16Z"/><path class="cls-1" d="M146.79,135.66l0,0,.09.18,1.93-1.08,0,0-.1-.17Z"/><path class="cls-1" d="M147,136.06h0l.09.18,2-.88.05,0-.09-.18Z"/><path class="cls-1" d="M147.12,136.49l.06.19,2-.7h.05l-.07-.19Z"/><path class="cls-1" d="M147.23,136.86a1.05,1.05,0,0,1,.05.19l2.17-.49,0-.19Z"/><path class="cls-1" d="M147.3,137.27a1.49,1.49,0,0,1,0,.21l2.14-.2h0l0-.2Z"/><path class="cls-1" d="M147.36,137.81s0,0,0,.06l2.19,0v-.2l-2.21,0c0,.05,0,.09,0,.14"/><path class="cls-1" d="M147.28,138.54c0,.07,0,.14,0,.2l2.12.48,0-.2Z"/><path class="cls-1" d="M149.49,138.56l0-.2-2.19-.24v0c0,.06,0,.11,0,.16l2.14.23Z"/><path class="cls-1" d="M149.18,139.84l.07-.2-2-.67h-.05l-.06.18,2,.67Z"/><path class="cls-1" d="M147,139.37a1.63,1.63,0,0,1-.09.19l1.94.87.05,0,.08-.18Z"/><path class="cls-1" d="M146.76,139.9,148.6,141l0,0,.1-.18-1.88-1.08c0,.06-.06.12-.1.17"/><path class="cls-1" d="M146.52,140.26l2.74,2,.12-.16-2.73-2a1.83,1.83,0,0,1-.13.16"/><path class="cls-1" d="M146.36,140.45a1.83,1.83,0,0,1-.13.16l5.07,4.62,0,0,.14-.15-5.08-4.64Z"/><path class="cls-1" d="M145.93,140.89l3.45,4,.16-.13-3.45-4h0l-.12.09,0,0"/><path class="cls-1" d="M145.62,141.15l3.9,5.15.16-.12L145.77,141l-.15.13"/><path class="cls-1" d="M145.21,141.38l2.72,4.63,0,.05.18-.11-2.74-4.66-.18.09"/><path class="cls-1" d="M144.86,141.58l2.5,5.44,0,0,.18-.08-2.52-5.5-.18.1"/><path class="cls-1" d="M144.42,141.71l1.07,3.25,0,0,.19-.07-1.09-3.28-.19.05"/><path class="cls-1" d="M144,141.83l1.3,5.55.2,0-1.3-5.55-.2.05"/><path class="cls-1" d="M124.5,178.7s-.63.73-.28,1.35a1,1,0,0,0,1.57,0s-1.52,0-1.29-1.35"/><path class="cls-1" d="M160.88,180.05a1,1,0,0,0,1.57,0c.35-.62-.28-1.35-.28-1.35.23,1.37-1.29,1.35-1.29,1.35"/><path class="cls-1" d="M130.21,177.93l-.33-.2-.82,1.37.33.2a.8.8,0,0,0,.82-1.37"/><path class="cls-1" d="M132.87,179.32a.82.82,0,1,0,.36,1.06.79.79,0,0,0-.36-1.06"/><path class="cls-1" d="M142.1,181.71a.77.77,0,0,0-.82.76.78.78,0,1,0,1.55.08.77.77,0,0,0-.73-.84"/><path class="cls-1" d="M149.6,181.81l-.45.12.18.7.46-.12a.34.34,0,0,0,.26-.44.35.35,0,0,0-.45-.26"/><path class="cls-1" d="M149.73,181.2a.29.29,0,0,0-.39-.22l-.41.11.15.61.43-.11a.3.3,0,0,0,.22-.39"/><path class="cls-1" d="M152.64,179.92a.75.75,0,0,0-.29.07l-.31.13.28.69.39-.15a.35.35,0,0,0,.2-.5.34.34,0,0,0-.27-.24"/><path class="cls-1" d="M155.37,178.93l.12.7.56-.31-.53-.47-.21-.23h0s0,.2.07.31"/><path class="cls-1" d="M161.38,179.08l-.67-.25a2.53,2.53,0,0,1,1.46-.13l-.82-.73a5.36,5.36,0,0,0-6.06-.78,22.62,22.62,0,0,1-23.92,0,5.36,5.36,0,0,0-6.06.78l-.81.73a2.53,2.53,0,0,1,1.46.13l-.67.25c.85.34.5,1,.5,1l1-.92a37.12,37.12,0,0,1,4.55,2.27,25.12,25.12,0,0,0,23.92,0,37.12,37.12,0,0,1,4.55-2.27l1,.92s-.35-.63.5-1m-32.1.45-.6-.35,1.07-1.82.6.36a1,1,0,0,1,.39,1.44,1,1,0,0,1-1.46.37m1.5.84-.27-.14,1-1.85.26.14Zm1.27.68a1.09,1.09,0,0,1-.51-1.46,1.08,1.08,0,0,1,2,.92,1.08,1.08,0,0,1-1.45.54m2.94-.63a.73.73,0,0,0-.36-.34.34.34,0,0,0-.47.15c-.16.41.83.67.59,1.3a.6.6,0,0,1-.84.31,1,1,0,0,1-.55-.51l.23-.14a.83.83,0,0,0,.42.4.32.32,0,0,0,.45-.16c.17-.42-.82-.7-.58-1.3a.62.62,0,0,1,.85-.3.88.88,0,0,1,.48.41Zm1.75,2.36a.77.77,0,0,1-.6-1l.35-1.31.29.07-.35,1.32a.48.48,0,0,0,.38.63.49.49,0,0,0,.65-.36l.35-1.31.29.08-.35,1.31a.78.78,0,0,1-1,.55m3,.59-.28-.05-.69-1.52a3.12,3.12,0,0,1-.12-.33h0s0,.19,0,.3l-.24,1.36-.29-.06.37-2.08.29,0,.68,1.52a3.12,3.12,0,0,1,.12.33h0s0-.19,0-.31l.25-1.35.29,0Zm.8.09-.3,0,.25-2.09.3,0Zm1.46.15a1.08,1.08,0,0,1-1-1.16,1.07,1.07,0,0,1,1.14-1,1,1,0,0,1,1,1.12,1.07,1.07,0,0,1-1.13,1.05m2.89,0-1-1.33c-.08-.11-.19-.29-.19-.29h0a2.32,2.32,0,0,1,0,.3l.06,1.37h-.3l-.08-2.1.29,0,1,1.33c.08.11.19.3.19.3h0a2.57,2.57,0,0,1,0-.3l-.06-1.37h.3l.08,2.1Zm2-.2-.33-2.08.29,0,.29,1.83.93-.15,0,.25Zm1.47-.25-.43-2.07.29-.06.43,2.07Zm1.52-.36-.73.19-.54-2,.72-.19a.54.54,0,0,1,.73.36.51.51,0,0,1-.14.51h0a.51.51,0,0,1,.46.41.59.59,0,0,1-.5.75m1.06-.29-.67-2,1.17-.39.08.25-.88.29.2.63.72-.24.08.25-.71.23.21.65.93-.31.08.24Zm2.66-1-.73-.62-.42.17.32.78-.28.11-.78-1.95.6-.24a1.07,1.07,0,0,1,.38-.11.58.58,0,0,1,.54.4.57.57,0,0,1-.14.67h0l.1.07.71.59Zm1-.47-.79-1.68-.65.31-.11-.23,1.58-.75.11.24-.66.31.79,1.67Zm2.12-1.1-.48-.43-.7.38.11.64-.27.14-.34-2.22.28-.15,1.67,1.5Zm1.08-.64-.6.37-1.11-1.79.59-.37a1.06,1.06,0,1,1,1.12,1.79"/><path class="cls-1" d="M156.79,177.73l-.33.2.85,1.36.32-.2a.8.8,0,0,0-.84-1.36"/><rect class="cls-1" x="283.51" y="40.12" width="1.47" height="297.03"/></svg>